<?xml version="1.0" encoding="utf-8"?>
<svg xmlns="http://www.w3.org/2000/svg" fill="none" height="21" viewBox="0 0 20 21" width="20">
<path clip-rule="evenodd" d="M6.14937 0H7.23616C8.01712 0 10.6822 0.728703 10.6822 0.728703H11.1464C11.3212 0.728703 11.6106 0.593758 11.7199 0.501995C11.7963 0.528984 11.8564 0.545177 11.9492 0.615349L7.41092 3.75687C7.40546 3.75687 6.02923 4.4208 6.02923 5.04694V12.9547L1.551 15.9829C1.61653 15.5618 2.1845 15.1786 2.1845 14.5794V6.78503C2.1845 6.18048 6.49343 3.98897 6.49343 3.36283C6.49343 2.74748 3.96487 2.24548 3.96487 2.24548C3.16207 2.2131 2.82893 2.2131 2.00974 2.24548C1.2124 2.27247 0.311292 2.76367 0 2.74748C0.977565 2.11594 3.60443 0 6.14937 0V0ZM15.3352 0.167332C16.0288 0.167332 16.4438 0.890637 17.6344 2.41282C17.9293 2.78526 19.3001 4.42619 19.3001 5.21427V5.83502C19.3001 7.43277 14.9911 9.03591 14.9911 9.69984C14.9911 10.1587 17.2576 9.94274 18.2679 10.6013C19.2345 11.2274 19.6441 12.5553 19.6441 13.2894V15.2002C19.6441 16.3391 18.044 16.771 16.0834 18.2284C15.2205 18.8653 12.2824 20.8085 12.0639 20.8085C12.0639 20.8085 8.68886 19.011 7.06686 19.011H4.88236C3.96487 19.011 1.72576 19.7991 1.551 19.7991C1.551 19.7991 4.94244 16.5442 8.38849 16.5442H10.6822C11.1573 16.5442 12.7848 17.1974 13.2108 17.3323V3.08214C13.2108 2.9472 13.0306 2.6935 12.752 2.6935C12.1131 2.6935 11.6598 3.82704 11.6598 3.87022V12.3394C11.6598 12.7172 10.1689 13.8453 9.36059 14.2988C8.16458 14.9789 7.38908 15.632 6.66273 15.9829V15.8155C6.66273 15.8155 7.29624 15.1408 7.29624 14.7522V5.55433C7.29624 5.44098 8.30657 4.20488 11.0863 2.63412C12.7029 1.72729 14.3467 0.167332 15.3352 0.167332V0.167332ZM14.019 4.03755C14.019 4.03755 15.854 5.99695 15.854 7.17907C15.854 8.0751 15.1495 8.42596 14.019 9.08449V4.03755ZM14.019 10.6553C14.1938 10.6984 15.2205 11.303 15.2205 11.724V18.169C14.9365 18.2985 15.1659 18.169 14.9911 18.169C14.6307 18.169 14.019 17.8937 14.019 17.5536V10.6553Z" fill="white" fill-rule="evenodd"/>
</svg>